8_ID_stride4.mot
nRows=12
nColumns=38

name 8_ID_stride4.mot
datacolumns 38
datarows 12
range 1.8800000000 1.9350000000
endheader
time	pelvis_tilt_moment	pelvis_list_moment	pelvis_rotation_moment	pelvis_tx_force	pelvis_ty_force	pelvis_tz_force	hip_flexion_r_moment	hip_adduction_r_moment	hip_rotation_r_moment	knee_angle_r_moment	ankle_angle_r_moment	subtalar_angle_r_moment	mtp_angle_r_moment	hip_flexion_l_moment	hip_adduction_l_moment	hip_rotation_l_moment	knee_angle_l_moment	ankle_angle_l_moment	subtalar_angle_l_moment	mtp_angle_l_moment	lumbar_extension_moment	lumbar_bending_moment	lumbar_rotation_moment	arm_flex_r_moment	arm_add_r_moment	arm_rot_r_moment	elbow_flex_r_moment	pro_sup_r_moment	wrist_flex_r_moment	wrist_dev_r_moment	arm_flex_l_moment	arm_add_l_moment	arm_rot_l_moment	elbow_flex_l_moment	pro_sup_l_moment	wrist_flex_l_moment	wrist_dev_l_moment
        1.8800000000	       12.2031579602	      -39.8509898840	       31.6962804907	       40.6120639968	     -105.8778276398	      -59.7726722838	      -17.7630462234	       -9.0774111547	        0.9287786730	       -1.4425488054	        2.7574643676	       -0.6802722992	        0.1433460983	        9.4193589119	      -19.7838966587	      -13.7167456687	       -9.3019072718	     -126.3096771482	       20.1906522834	       -0.0553142051	      -21.6076439726	        3.6984776705	       38.8898634518	        5.2887499895	        4.1933224169	        3.8369938585	        2.3480514517	        0.0759546692	        0.4605443359	       -0.0613533000	       -2.9920259650	       -2.3223877096	       -3.1234138523	        1.6441303762	       -0.1495449543	       -0.3393338048	       -0.1879052304	
        1.8850000000	        6.7229924846	      -36.5945604719	       26.2843712247	       39.9085851731	      -75.5480444153	      -54.5630782517	      -17.8498496436	       -8.2733885999	        0.4623526093	       -1.8565523298	        2.8451319738	       -0.7029491545	        0.1471554908	       13.0110028666	      -18.5412708607	       -8.9020708905	      -10.8815427763	     -110.0680099467	       18.7811046300	       -0.0619779286	      -21.7756127592	        2.2055028068	       36.6630296444	        4.8153766546	        3.6655397180	        3.4981863577	        2.0228860895	        0.0749326250	        0.4214372616	       -0.0412291231	       -3.1559326140	       -2.0880830492	       -2.8555744458	        1.2603224891	       -0.1351510171	       -0.3199158517	       -0.1508586110	
        1.8900000000	        1.1878607914	      -33.9244530594	       23.7959746085	       41.3137510173	      -37.7471532626	      -43.1638538868	      -17.9924833323	       -7.0744797281	        0.0264191067	       -2.4784352370	        2.9284101882	       -0.7303526190	        0.1508516949	       13.2372306131	      -17.1023957697	       -6.3867282287	      -14.4583459251	      -95.8822275016	       16.9308140922	       -0.0640550731	      -20.0893757584	        0.4470672304	       34.2746158004	        4.3100024183	        3.0170017968	        3.0923889459	        1.7614341057	        0.0710508247	        0.3787885392	       -0.0291468083	       -3.3491362457	       -1.6578736166	       -2.4923494746	        0.9278874181	       -0.1194326767	       -0.2903603923	       -0.1183657971	
        1.8950000000	       -0.9882818135	      -30.9267014786	       23.7812272594	       52.5114105731	       -3.1097182174	      -30.8525665950	      -18.5140538944	       -5.6959182882	       -0.2731826112	       -3.3693749205	        2.9941609930	       -0.7654006282	        0.1533070293	       11.7815759697	      -12.5827073157	       -6.1108762796	      -19.1755769816	      -84.5242366774	       15.2790554013	       -0.0635302608	      -15.6313962666	       -1.4839536429	       31.9456609010	        3.8367891257	        2.2642572812	        2.6348045119	        1.5547762114	        0.0654634931	        0.3340546915	       -0.0243814836	       -3.5560588395	       -1.0775392646	       -2.0636181666	        0.6329909586	       -0.1030182802	       -0.2549397535	       -0.0898597692	
        1.9000000000	        0.3538496282	      -20.8841511376	       28.2049331759	       72.2929083011	       19.2589187059	      -23.3452534687	      -19.6279084688	       -4.0765800024	       -0.4267095649	       -4.5373816462	        3.0320105811	       -0.8059867611	        0.1541572738	       14.1682371789	       -4.4093954620	       -8.2046385401	      -21.5900822636	      -74.6153217539	       14.0340554757	       -0.0542553823	       -9.8561216925	       -3.5512159527	       29.7777620930	        3.4424725626	        1.4440710479	        2.1441941432	        1.3882749387	        0.0589623025	        0.2884631717	       -0.0240398040	       -3.7391973881	       -0.3962818854	       -1.6018622552	        0.3622889673	       -0.0864783039	       -0.2168757147	       -0.0647655559	
        1.9050000000	        3.8905400295	       -0.0667163956	       33.0789151212	       95.7911625901	       20.3876357963	      -24.9993638103	      -21.4436530574	       -1.9710473173	       -0.4796790495	       -5.9425809269	        3.0274994603	       -0.8456320253	        0.1525015975	       25.9615714620	        4.7114544777	       -9.0244311599	      -17.3614062714	      -62.6069238210	       12.6336542140	       -0.0367745297	       -3.7194923900	       -5.7128880350	       27.7934198731	        3.1572807599	        0.6151886231	        1.6470751941	        1.2357761495	        0.0524587529	        0.2432598495	       -0.0268584042	       -3.8539476489	        0.3083745643	       -1.1480311371	        0.0976440240	       -0.0703507356	       -0.1799207718	       -0.0420011877	
        1.9100000000	        4.9902027875	       27.9033326104	       34.8753332225	      116.2994371058	        2.4453175445	      -32.9706578531	      -24.2658556753	        0.9818313490	       -0.5450655246	       -7.6116122540	        2.9800780495	       -0.8729735081	        0.1484235612	       44.6297059920	       10.9952908301	       -7.3280318211	       -8.0429461250	      -47.9314971630	       10.4448726923	       -0.0097204794	        1.6254734669	       -7.8889596127	       25.8961824365	        2.9959455264	       -0.1498796417	        1.1731599756	        1.0599479116	        0.0469137117	        0.1993412156	       -0.0270403374	       -3.8248134917	        0.9435297701	       -0.7452406306	       -0.1814331987	       -0.0549869300	       -0.1477318051	       -0.0197630853	
        1.9150000000	        5.0366789933	       52.8236469754	       35.2741881721	      124.9603834281	      -41.4668828275	      -45.6544954566	      -27.9950940957	        4.8258477200	       -0.6407321892	       -9.5535545099	        2.8780208492	       -0.8832896052	        0.1422605230	       61.4732785684	       13.6683135123	       -3.6295623826	        1.0744903698	      -33.8389021635	        7.8367642266	        0.0262910977	        5.2583182410	      -10.0002597557	       23.9480792416	        2.8952651281	       -0.8135082704	        0.7359828736	        0.8488845575	        0.0425805989	        0.1567725567	       -0.0266031381	       -3.7173762504	        1.4573226632	       -0.4050799709	       -0.4779990713	       -0.0403328661	       -0.1207923445	        0.0030514230	
        1.9200000000	        1.0884001427	       66.4393819376	       33.5015694029	      125.0157690533	     -103.7896982286	      -56.3630293229	      -32.5957978221	        9.7864722630	       -0.7980298591	      -11.8702061691	        2.7407590081	       -0.8810438368	        0.1351142609	       69.7290211175	       13.9715420726	        0.0324970199	        5.1139135033	      -23.5478790183	        5.4334242653	        0.0716733444	        6.8680427695	      -11.9614543958	       21.7906042624	        2.8304776707	       -1.3337221489	        0.3531097538	        0.5784456947	        0.0396492521	        0.1159190951	       -0.0184010883	       -3.4382772377	        1.8054177898	       -0.1424613481	       -0.7970763101	       -0.0264968855	       -0.0999274391	        0.0275660469	
        1.9250000000	       -2.6347081132	       60.8326508780	       32.4991810421	      111.6327869380	     -173.1546995713	      -60.1405734077	      -37.9655424942	       15.4967407887	       -0.9197543291	      -14.7093174110	        2.5876213047	       -0.8675370782	        0.1283793759	       63.1210172398	       14.8892137485	        1.4406223461	       -0.3078299294	      -19.6998466214	        4.3735149810	        0.1233549902	        5.9638682308	      -13.7141121689	       19.2638847179	        2.7228228616	       -1.6973430790	        0.0305915905	        0.2622802588	        0.0377635254	        0.0769314174	       -0.0048187934	       -3.0645154088	        1.9800385143	        0.0508437568	       -1.1191705156	       -0.0134498862	       -0.0835982659	        0.0535711268	
        1.9300000000	       -7.4311084678	       49.7933440959	       31.1381870854	       86.5648389265	     -208.6272520898	      -69.3641896372	      -43.9886146568	       21.4307877886	       -0.8516764043	      -18.2265378821	        2.4406565747	       -0.8559322914	        0.1236567432	       56.2167618506	       16.4041179944	        1.3796522314	       -3.1423874417	      -12.7892142810	        2.9912600108	        0.1781052798	        3.3436841567	      -15.2382027546	       16.3304816096	        2.5157788298	       -1.8984842649	       -0.2261064778	       -0.0691303448	        0.0362140628	        0.0407832529	        0.0127218585	       -2.6452949832	        1.9646042434	        0.1904631085	       -1.4110309570	       -0.0014631861	       -0.0694777942	        0.0793662392	
        1.9350000000	      -10.8446363487	       38.9730070109	       27.9852653726	       52.2414467135	     -209.4299472141	      -79.8139799880	      -49.4855597470	       26.8543707160	       -0.5380677858	      -22.2513960513	        2.3693331038	       -0.8596036330	        0.1235480049	       55.0299340630	       17.7532356826	        1.9308496439	       -1.3135701855	       -1.4977160983	        0.8026513318	        0.2321729304	       -0.6012221734	      -16.5225836145	       13.0692522057	        2.1661118314	       -1.9176648634	       -0.4141395052	       -0.3792541178	        0.0344875552	        0.0090776753	        0.0318967134	       -2.2430548485	        1.8540540939	        0.2926507009	       -1.6385964000	        0.0090192502	       -0.0558165278	        0.1026489203	
